<?xml version="1.0" encoding="UTF-8"?>
<svg xmlns="http://www.w3.org/2000/svg" xmlns:xlink="http://www.w3.org/1999/xlink" width="495.014173pt" height="731.253543pt" viewBox="0 0 495.014173 731.253543" version="1.1">
<defs>
<clipPath id="clip1">
  <path d="M 192 296 L 412 296 L 412 731.253906 L 192 731.253906 Z M 192 296 "/>
</clipPath>
<clipPath id="clip2">
  <path d="M 191 296 L 412 296 L 412 731.253906 L 191 731.253906 Z M 191 296 "/>
</clipPath>
</defs>
<g id="surface1">
<path style="fill-rule:evenodd;fill:rgb(100%,100%,100%);fill-opacity:1;stroke-width:35;stroke-linecap:butt;stroke-linejoin:round;stroke:rgb(0%,0%,0%);stroke-opacity:1;stroke-miterlimit:4;" d="M 8731.939019 25798.942057 L 0 25798.942057 L 0 -0.00000000000150398 L 17463.051215 -0.00000000000150398 L 17463.051215 25798.942057 Z M 8731.939019 25798.942057 " transform="matrix(0.0283465,0,0,0.0283465,0,0.000000000000042633)"/>
<g clip-path="url(#clip1)" clip-rule="nonzero">
<path style=" stroke:none;fill-rule:evenodd;fill:rgb(0%,0%,0%);fill-opacity:1;" d="M 301.664062 296.757812 C 363.683594 296.757812 411.023438 390.839844 411.023438 514.035156 C 411.023438 637.226562 363.683594 731.308594 301.664062 731.308594 C 239.667969 731.308594 192.332031 637.226562 192.332031 514.035156 C 192.332031 390.839844 239.667969 296.757812 301.664062 296.757812 Z M 192.332031 296.757812 Z M 411.050781 731.367188 Z M 411.050781 731.367188 "/>
</g>
<g clip-path="url(#clip2)" clip-rule="nonzero">
<path style="fill:none;stroke-width:44;stroke-linecap:butt;stroke-linejoin:round;stroke:rgb(0%,0%,0%);stroke-opacity:1;stroke-miterlimit:4;" d="M 10643.002387 10468.956163 C 12829.949002 10468.956163 14499.99349 13787.961155 14499.99349 18133.053385 C 14499.99349 22479.937066 12829.949002 25798.942057 10643.002387 25798.942057 C 8454.953342 25798.942057 6785.046658 22479.937066 6785.046658 18133.053385 C 6785.046658 13787.961155 8454.953342 10468.956163 10643.002387 10468.956163 Z M 10643.002387 10468.956163 " transform="matrix(0.0283465,0,0,0.0283465,0,0.000000000000042633)"/>
</g>
<path style="fill-rule:evenodd;fill:rgb(0%,0%,0%);fill-opacity:1;stroke-width:28.222;stroke-linecap:butt;stroke-linejoin:round;stroke:rgb(0%,0%,0%);stroke-opacity:1;stroke-miterlimit:4;" d="M 5118.998481 11402.025825 L -0.964627 11402.025825 L -0.964627 5422.993707 L 10237.996962 5422.993707 L 10237.996962 11402.025825 Z M 5118.998481 11402.025825 " transform="matrix(0.0283465,0,0,0.0283465,0,0.000000000000042633)"/>
<path style=" stroke:none;fill-rule:evenodd;fill:rgb(0%,0%,0%);fill-opacity:1;" d="M 336.726562 -0.0273438 L 465.730469 115.484375 L 336.726562 230.996094 L 207.722656 115.484375 Z M 207.722656 -0.0273438 Z M 465.730469 230.996094 Z M 465.730469 230.996094 "/>
<path style="fill:none;stroke-width:28.222;stroke-linecap:butt;stroke-linejoin:round;stroke:rgb(0%,0%,0%);stroke-opacity:1;stroke-miterlimit:4;" d="M 11878.964844 -0.964627 L 16429.935981 4074.032118 L 11878.964844 8149.028863 L 7327.993707 4074.032118 Z M 11878.964844 -0.964627 " transform="matrix(0.0283465,0,0,0.0283465,0,0.000000000000042633)"/>
<path style="fill:none;stroke-width:28.222;stroke-linecap:butt;stroke-linejoin:round;stroke:rgb(0%,0%,0%);stroke-opacity:1;stroke-miterlimit:4;" d="M 7327.993707 -0.964627 Z M 7327.993707 -0.964627 " transform="matrix(0.0283465,0,0,0.0283465,0,0.000000000000042633)"/>
<path style="fill:none;stroke-width:28.222;stroke-linecap:butt;stroke-linejoin:round;stroke:rgb(0%,0%,0%);stroke-opacity:1;stroke-miterlimit:4;" d="M 16429.935981 8149.028863 Z M 16429.935981 8149.028863 " transform="matrix(0.0283465,0,0,0.0283465,0,0.000000000000042633)"/>
</g>
</svg>
