<?xml version="1.0" encoding="UTF-8"?>
<svg xmlns="http://www.w3.org/2000/svg" xmlns:xlink="http://www.w3.org/1999/xlink" width="396pt" height="585.014173pt" viewBox="0 0 396 585.014173" version="1.1">
<defs>
<clipPath id="clip1">
  <path d="M 42 329 L 229 329 L 229 585.015625 L 42 585.015625 Z M 42 329 "/>
</clipPath>
<clipPath id="clip2">
  <path d="M 41 329 L 230 329 L 230 585.015625 L 41 585.015625 Z M 41 329 "/>
</clipPath>
</defs>
<g id="surface1">
<path style="fill-rule:evenodd;fill:rgb(100%,100%,100%);fill-opacity:1;stroke-width:28.222;stroke-linecap:butt;stroke-linejoin:round;stroke:rgb(0%,0%,0%);stroke-opacity:1;stroke-miterlimit:4;" d="M 6985 20638.051215 L 0 20638.051215 L 0 0 L 13970 0 L 13970 20638.051215 Z M 6985 20638.051215 " transform="matrix(0.0283465,0,0,0.0283465,0,0)"/>
<g clip-path="url(#clip1)" clip-rule="nonzero">
<path style=" stroke:none;fill-rule:evenodd;fill:rgb(0%,0%,0%);fill-opacity:1;" d="M 135.523438 585.015625 L 42.039062 585.015625 L 42.039062 329.953125 L 228.984375 329.953125 L 228.984375 585.015625 Z M 135.523438 585.015625 "/>
</g>
<g clip-path="url(#clip2)" clip-rule="nonzero">
<path style="fill:none;stroke-width:35;stroke-linecap:butt;stroke-linejoin:round;stroke:rgb(0%,0%,0%);stroke-opacity:1;stroke-miterlimit:4;" d="M 4780.965712 20638.051215 L 1483.044705 20638.051215 L 1483.044705 11640.013021 L 8078.059896 11640.013021 L 8078.059896 20638.051215 Z M 4780.965712 20638.051215 " transform="matrix(0.0283465,0,0,0.0283465,0,0)"/>
</g>
<path style=" stroke:none;fill-rule:evenodd;fill:rgb(0%,0%,0%);fill-opacity:1;" d="M 198 -0.0273438 L 396.058594 335.960938 L 0 335.960938 Z M 0 -0.0273438 Z M 396.058594 335.960938 Z M 396.058594 335.960938 "/>
<path style="fill:none;stroke-width:35;stroke-linecap:butt;stroke-linejoin:round;stroke:rgb(0%,0%,0%);stroke-opacity:1;stroke-miterlimit:4;" d="M 6985 -0.964627 L 13972.067057 11851.955295 L 0 11851.955295 Z M 6985 -0.964627 " transform="matrix(0.0283465,0,0,0.0283465,0,0)"/>
</g>
</svg>
